#!OML:ASF F:\VICON\USERDATA\INSTALL\rory7\rory7.ASF
:FULLY-SPECIFIED
:DEGREES
532
root 1.00745 33.6193 -2.01863 -172.242 -19.5354 179.158
lowerback 17.0863 -2.08769 -4.67241
upperback 1.60794 -3.96522 -0.912566
thorax -7.59943 -1.88643 2.59466
lowerneck -30.5856 -4.34442 -10.0127
upperneck 22.4046 -5.14766 11.4825
head 13.1694 -1.58698 5.17563
rclavicle -2.06736e-014 -7.15625e-015
rhumerus -28.9736 13.2502 -79.45
rradius 71.4386
rwrist 22.8512
rhand -22.3982 -8.56967
rfingers 7.12502
rthumb 4.02427 -38.5114
lclavicle -2.06736e-014 -7.15625e-015
lhumerus -14.5019 -22.2996 91.3048
lradius 74.3906
lwrist 11.4371
lhand -25.0101 19.7651
lfingers 7.12502
lthumb 1.50179 49.7396
rfemur -22.2805 9.68233 19.4211
rtibia 56.2209
rfoot -27.7613 -11.2742
rtoes -12.121
lfemur -32.0062 23.1087 -34.3711
ltibia 39.4257
lfoot -18.1085 9.64521
ltoes 23.668
533
root 1.00844 33.6543 -2.03323 -172.24 -19.8846 179.224
lowerback 17.0701 -2.13861 -4.493
upperback 1.62351 -4.00108 -0.960545
thorax -7.58662 -1.91093 2.44919
lowerneck -30.8542 -4.40549 -9.78841
upperneck 22.682 -5.28286 11.2943
head 13.3373 -1.64551 5.04729
rclavicle -6.40087e-014 -2.06736e-014
rhumerus -29.2845 13.2753 -79.4592
rradius 72.1021
rwrist 23.8565
rhand -19.6518 -10.7966
rfingers 7.12502
rthumb 6.67594 -40.6714
lclavicle -6.40087e-014 -2.06736e-014
lhumerus -14.4639 -22.7012 91.2699
lradius 74.0977
lwrist 11.399
lhand -25.3558 19.562
lfingers 7.12502
lthumb 1.16793 49.5385
rfemur -22.4002 9.90245 19.3133
rtibia 55.8409
rfoot -28.3177 -10.8367
rtoes -10.0127
lfemur -31.6122 22.718 -34.175
ltibia 38.8683
lfoot -17.8504 9.7742
ltoes 23.7889
534
root 1.01358 33.6655 -2.04664 -172.276 -20.1826 179.529
lowerback 16.9684 -2.19422 -4.25309
upperback 1.63771 -4.00543 -0.826086
thorax -7.52034 -1.91817 2.45251
lowerneck -31.0405 -4.49837 -9.84649
upperneck 22.8529 -5.36595 11.2389
head 13.4531 -1.68936 5.02687
rclavicle -8.54774e-015 -1.59028e-015
rhumerus -29.4823 13.638 -79.3279
rradius 72.7542
rwrist 24.8841
rhand -16.2987 -13.5694
rfingers 7.12502
rthumb 9.912 -43.316
lclavicle -8.54774e-015 -1.59028e-015
lhumerus -14.3691 -22.791 91.4266
lradius 73.685
lwrist 11.2117
lhand -25.5898 19.0907
lfingers 7.12502
lthumb 0.94191 49.0684
rfemur -22.4443 9.943 19.5296
rtibia 55.4016
rfoot -28.6291 -10.8066
rtoes -9.93399
lfemur -31.4089 22.4479 -33.8061
ltibia 38.4075
lfoot -17.5411 9.94543
ltoes 23.0623
535
root 1.02172 33.6822 -2.06242 -172.323 -20.4276 179.669
lowerback 16.9541 -2.19534 -4.19102
upperback 1.65758 -3.98662 -0.756645
thorax -7.49095 -1.91055 2.48608
lowerneck -31.2618 -4.58429 -9.85133
upperneck 23.0494 -5.45689 11.1616
head 13.5851 -1.73414 4.98776
rclavicle -3.18055e-014 -1.90833e-014
rhumerus -29.8002 13.899 -79.2421
rradius 73.5909
rwrist 26.1468
rhand -12.5447 -15.8957
rfingers 7.12502
rthumb 13.5321 -45.4361
lclavicle -3.18055e-014 -1.90833e-014
lhumerus -14.2899 -22.9208 91.5911
lradius 73.3493
lwrist 11.0676
lhand -25.7492 19.0498
lfingers 7.12502
lthumb 0.787975 49.0281
rfemur -22.3766 10.1563 19.6182
rtibia 54.8768
rfoot -28.8027 -10.9969
rtoes -10.4616
lfemur -31.129 22.2713 -33.5771
ltibia 37.9947
lfoot -17.2643 10.0387
ltoes 22.3712
536
root 1.03209 33.7082 -2.07809 -172.29 -20.742 179.553
lowerback 16.9726 -2.22523 -4.26385
upperback 1.65573 -4.05128 -0.858208
thorax -7.5018 -1.94161 2.434
lowerneck -31.3786 -4.60589 -9.72285
upperneck 23.2371 -5.55459 11.1356
head 13.6936 -1.76771 4.94364
rclavicle 2.04748e-014 6.12257e-014
rhumerus -30.2052 14.0859 -79.3306
rradius 74.5139
rwrist 27.3252
rhand -8.71648 -17.4907
rfingers 7.12502
rthumb 17.2193 -46.7478
lclavicle 2.04748e-014 6.12257e-014
lhumerus -14.2588 -23.1383 91.5814
lradius 73.0381
lwrist 10.9124
lhand -26.1197 19.0566
lfingers 7.12502
lthumb 0.430112 49.0359
rfemur -22.3434 10.484 19.4103
rtibia 54.2721
rfoot -29.0237 -10.9776
rtoes -9.84645
lfemur -30.7876 21.9718 -33.5563
ltibia 37.5724
lfoot -17.0676 10.0627
ltoes 22.197
537
root 1.03704 33.7258 -2.09168 -172.23 -21.1357 179.58
lowerback 16.9536 -2.23299 -4.40208
upperback 1.60153 -4.06431 -0.679717
thorax -7.52574 -1.93542 2.70544
lowerneck -31.3625 -4.68807 -9.78707
upperneck 23.3675 -5.57519 10.9122
head 13.7393 -1.81226 4.86285
rclavicle -1.5704e-014 -2.46493e-014
rhumerus -30.5677 14.4196 -79.0993
rradius 75.5405
rwrist 28.5075
rhand -5.13274 -19.1999
rfingers 7.12502
rthumb 20.6659 -48.1197
lclavicle -1.5704e-014 -2.46493e-014
lhumerus -14.2342 -23.2159 91.9837
lradius 72.7619
lwrist 10.7175
lhand -26.6047 18.6851
lfingers 7.12502
lthumb -0.0383292 48.6648
rfemur -22.3591 10.5048 19.4128
rtibia 53.5375
rfoot -28.7605 -11.7935
rtoes -11.6333
lfemur -30.5453 21.6536 -33.4414
ltibia 37.1355
lfoot -16.8711 9.968
ltoes 22.4703
